<!-- Social media icons -->
<svg width="200" height="40" viewBox="0 0 200 40" fill="none" xmlns="http://www.w3.org/2000/svg">
  <!-- Facebook -->
  <circle cx="20" cy="20" r="15" fill="#3b5998"/>
  <path d="M23 13h-2c-1.1 0-2 .9-2 2v2h-2v3h2v7h3v-7h2l1-3h-3v-1c0-.55.45-1 1-1h2v-3z" fill="white"/>
  
  <!-- Twitter -->
  <circle cx="60" cy="20" r="15" fill="#1da1f2"/>
  <path d="M68 14.5c-.7.3-1.4.5-2.2.6.8-.5 1.4-1.2 1.7-2.1-.7.4-1.5.7-2.3.9-.7-.7-1.6-1.2-2.7-1.2-2 0-3.7 1.6-3.7 3.7 0 .3 0 .6.1.8-3.1-.2-5.8-1.6-7.6-3.9-.3.6-.5 1.2-.5 1.9 0 1.3.7 2.4 1.7 3-.6 0-1.2-.2-1.7-.5v.1c0 1.8 1.3 3.3 3 3.6-.3.1-.6.1-1 .1-.2 0-.5 0-.7-.1.5 1.5 1.9 2.6 3.5 2.6-1.3 1-2.9 1.6-4.7 1.6-.3 0-.6 0-.9-.1 1.6 1 3.6 1.6 5.7 1.6 6.8 0 10.5-5.6 10.5-10.5v-.5c.7-.5 1.3-1.1 1.8-1.8z" fill="white"/>
  
  <!-- Instagram -->
  <circle cx="100" cy="20" r="15" fill="#e1306c"/>
  <rect x="92" y="12" width="16" height="16" rx="4" fill="none" stroke="white" stroke-width="1.5"/>
  <circle cx="100" cy="20" r="4" fill="none" stroke="white" stroke-width="1.5"/>
  <circle cx="104" cy="16" r="1" fill="white"/>
  
  <!-- YouTube -->
  <circle cx="140" cy="20" r="15" fill="#ff0000"/>
  <path d="M134 15v10l8-5-8-5z" fill="white"/>
  
  <!-- LinkedIn -->
  <circle cx="180" cy="20" r="15" fill="#0077b5"/>
  <rect x="175" y="16" width="2" height="8" fill="white"/>
  <circle cx="176" cy="14" r="1" fill="white"/>
  <path d="M179 18h2v6h-2v-3c0-1 0-2 1-2s1 1 1 2v3h2v-3c0-2-1-3-2-3-1 0-2 1-2 2v-2z" fill="white"/>
</svg>
