<?xml version="1.0" encoding="UTF-8"?>
<svg version="1.1" xmlns="http://www.w3.org/2000/svg" width="317" height="45">
<path d="M0 0 C2.52052318 1.34053303 4.6974646 2.84886617 6.95703125 4.58984375 C9.06472441 6.04467593 10.46626307 6.70311769 13 7 C16.20966645 5.65194009 18.53401431 4.46598569 21 2 C21.4505519 5.07877133 21.50042912 7.21010698 19.8046875 9.88671875 C16.3736007 13.99885042 13.68738556 16.67811259 8.1953125 17.3359375 C0.20967154 17.43753599 -3.57237066 16.33742857 -9.375 10.6875 C-11.43485181 7.28082201 -11.30678849 4.91155321 -11 1 C-7.46138829 -0.76930586 -3.85352243 -0.65821035 0 0 Z " fill="#D8D8D8" transform="translate(11,20)"/>
<path d="M0 0 C2.93423195 1.79646854 4.47205355 2.9441071 6 6 C6.93762008 16.40604586 6.93762008 16.40604586 4.125 21.1875 C0.32605196 24.42777921 -2.65797827 24.32806735 -7.515625 24.29296875 C-10.97198834 23.88537873 -12.68663869 22.53723498 -15 20 C-17.08540153 15.82919693 -16.45427114 10.54271136 -16 6 C-12.08680048 -0.65243919 -7.21902477 -0.85130009 0 0 Z M-9.1875 5.125 C-11.67140561 7.69455753 -11.85854435 9.46360874 -12 13 C-10.95102418 16.84624466 -10.39462539 17.73691641 -7 20 C-2.49149818 19.65554402 -2.49149818 19.65554402 1 17 C1.39501229 14.66761933 1.39501229 14.66761933 1.375 12.0625 C1.40335938 11.18722656 1.43171875 10.31195312 1.4609375 9.41015625 C1.20622944 6.87706208 1.20622944 6.87706208 -0.7734375 5.18359375 C-3.86913401 3.53798666 -6.06559682 3.51944979 -9.1875 5.125 Z " fill="#D8D8D8" transform="translate(60,11)"/>
<path d="M0 0 C2.62780149 2.45942977 2.98534742 3.8272949 3.29296875 7.453125 C3.25816406 8.70609375 3.22335938 9.9590625 3.1875 11.25 C3.16042969 12.51328125 3.13335937 13.7765625 3.10546875 15.078125 C3.07066406 16.04234375 3.03585938 17.0065625 3 18 C0.70858714 18.05384521 -1.58318188 18.09272087 -3.875 18.125 C-5.15117188 18.14820312 -6.42734375 18.17140625 -7.7421875 18.1953125 C-11 18 -11 18 -13 16 C-13.32076798 12.98478096 -13.54059027 10.89038397 -11.9375 8.25 C-9.14094853 6.44577325 -6.21002051 5.78736352 -3 5 C-4.27875 5.20625 -5.5575 5.4125 -6.875 5.625 C-9.0546875 5.9765625 -9.0546875 5.9765625 -11 6 C-11.66 5.34 -12.32 4.68 -13 4 C-9.34712938 -1.39233282 -6.22749762 -1.44566909 0 0 Z M-9 12 C-8.67 12.66 -8.34 13.32 -8 14 C-6.35 13.67 -4.7 13.34 -3 13 C-2.67 12.01 -2.34 11.02 -2 10 C-5.10551666 10 -6.35261084 10.5393715 -9 12 Z " fill="#D8D8D8" transform="translate(118,17)"/>
<path d="M0 0 C2 2 2 2 2.1953125 5.6953125 C2.182009 7.17200108 2.15814835 8.64862358 2.125 10.125 C2.11597656 10.87910156 2.10695312 11.63320313 2.09765625 12.41015625 C2.0740687 14.27357254 2.03819719 16.13682593 2 18 C-0.10353495 18.0810206 -2.20795952 18.13919907 -4.3125 18.1875 C-5.48425781 18.22230469 -6.65601563 18.25710937 -7.86328125 18.29296875 C-11 18 -11 18 -12.9296875 16.6796875 C-14 15 -14 15 -13.8125 11.9375 C-13 9 -13 9 -11 7 C-9.0546875 6.3671875 -9.0546875 6.3671875 -6.875 5.875 C-5.59625 5.58625 -4.3175 5.2975 -3 5 C-6.04386724 4.91773332 -8.07175348 5.02391783 -11 6 C-11.66 5.67 -12.32 5.34 -13 5 C-12.66855019 2.51412643 -12.38738909 1.32540684 -10.4375 -0.3125 C-6.68433221 -1.37108579 -3.82953242 -0.74119982 0 0 Z M-9 12 C-9 12.66 -9 13.32 -9 14 C-7.35 14 -5.7 14 -4 14 C-3.34 12.68 -2.68 11.36 -2 10 C-6.04622502 9.63019987 -6.04622502 9.63019987 -9 12 Z " fill="#D8D8D8" transform="translate(184,17)"/>
<path d="M0 0 C2.4375 1.6875 2.4375 1.6875 4 4 C4 5.98 4 7.96 4 10 C0.04 10 -3.92 10 -8 10 C-7.01 11.485 -7.01 11.485 -6 13 C-4.68 13 -3.36 13 -2 13 C-1.34 12.34 -0.68 11.68 0 11 C1.32 11.66 2.64 12.32 4 13 C2.25 16.875 2.25 16.875 0 18 C-6.97142857 18.68571429 -6.97142857 18.68571429 -11 16 C-13.23495494 12.64756759 -13.67920629 10.87083725 -13.43359375 6.93359375 C-12.75194607 3.89381354 -11.19767713 2.13303956 -9 0 C-5.81452856 -1.59273572 -3.39809153 -0.76164121 0 0 Z M-7 4 C-7.33 4.99 -7.66 5.98 -8 7 C-5.69 7 -3.38 7 -1 7 C-1.33 6.01 -1.66 5.02 -2 4 C-3.65 4 -5.3 4 -7 4 Z " fill="#D8D8D8" transform="translate(99,17)"/>
<path d="M0 0 C3.09880627 3.90034508 3.3356913 6.92218724 3.1875 11.8125 C3.16042969 12.97394531 3.13335937 14.13539062 3.10546875 15.33203125 C3.07066406 16.21246094 3.03585938 17.09289062 3 18 C1.35 18 -0.3 18 -2 18 C-2.33 14.04 -2.66 10.08 -3 6 C-4.65 5.67 -6.3 5.34 -8 5 C-8.33 9.29 -8.66 13.58 -9 18 C-10.65 18 -12.3 18 -14 18 C-14 12.06 -14 6.12 -14 0 C-4.85333333 -1.30666667 -4.85333333 -1.30666667 0 0 Z " fill="#D8D8D8" transform="translate(138,17)"/>
<path d="M0 0 C2 1.9375 2 1.9375 3 4 C3 4.66 3 5.32 3 6 C1.35 6.33 -0.3 6.66 -2 7 C-2.33 6.34 -2.66 5.68 -3 5 C-4.65 5.33 -6.3 5.66 -8 6 C-8 7.98 -8 9.96 -8 12 C-5.92446352 12.5534764 -4.15634036 13 -2 13 C-2 12.34 -2 11.68 -2 11 C-0.35 11.33 1.3 11.66 3 12 C1.25 16.875 1.25 16.875 -1 18 C-4.05905981 18.41338646 -6.94532102 18.46661171 -10 18 C-12.70879965 15.8858149 -13.7230135 14.44616111 -14.37109375 11.0625 C-14.61174259 7.21211862 -14.24270904 5.38024417 -12.125 2.0625 C-8.32571851 -1.62503791 -4.95070427 -1.33638643 0 0 Z " fill="#D8D8D8" transform="translate(82,17)"/>
<path d="M0 0 C1.9375 1.375 1.9375 1.375 3 3 C3 3.99 3 4.98 3 6 C1.35 6.33 -0.3 6.66 -2 7 C-2.33 6.34 -2.66 5.68 -3 5 C-4.65 5.33 -6.3 5.66 -8 6 C-7.67 8.31 -7.34 10.62 -7 13 C-5.68 13 -4.36 13 -3 13 C-2.67 12.34 -2.34 11.68 -2 11 C-0.35 11.33 1.3 11.66 3 12 C1.25 16.875 1.25 16.875 -1 18 C-7.85082873 18.44198895 -7.85082873 18.44198895 -11.4375 17.0625 C-13.97479576 13.7132696 -14.18865971 10.12874521 -14 6 C-12.79071258 3.00860479 -11.75924934 1.59655306 -9.25 -0.375 C-5.90127203 -1.30520221 -3.35093496 -0.79203917 0 0 Z " fill="#D8D8D8" transform="translate(166,17)"/>
<path d="M0 0 C1.65 0 3.3 0 5 0 C5 5.94 5 11.88 5 18 C3.35 18 1.7 18 0 18 C0 12.06 0 6.12 0 0 Z " fill="#D8D8D8" transform="translate(144,17)"/>
<path d="M0 0 C1.65 0 3.3 0 5 0 C5 1.32 5 2.64 5 4 C3.35 4 1.7 4 0 4 C0 2.68 0 1.36 0 0 Z " fill="#D8D8D8" transform="translate(144,11)"/>
</svg>
